<mxfile host="Electron" agent="Mozilla/5.0 (X11; Linux x86_64) AppleWebKit/537.36 (KHTML, like Gecko) draw.io/24.7.8 Chrome/128.0.6613.36 Electron/32.0.1 Safari/537.36" version="24.7.8">
  <diagram name="Page-1" id="43wlWFfG_WKgDdicjM2Q">
    <mxGraphModel dx="819" dy="482" grid="1" gridSize="10" guides="1" tooltips="1" connect="1" arrows="1" fold="1" page="1" pageScale="1" pageWidth="850" pageHeight="1100" background="none" math="0" shadow="0">
      <root>
        <mxCell id="0" />
        <mxCell id="1" parent="0" />
        <mxCell id="fRUEs9i5r1WmXnQZ1WoU-1" value="&lt;font style=&quot;font-size: 18px;&quot;&gt;Localization&lt;/font&gt;" style="rounded=1;whiteSpace=wrap;html=1;strokeWidth=2;" vertex="1" parent="1">
          <mxGeometry x="160" y="320" width="160" height="40" as="geometry" />
        </mxCell>
        <mxCell id="fRUEs9i5r1WmXnQZ1WoU-2" value="&lt;font style=&quot;font-size: 18px;&quot;&gt;Cognition&lt;/font&gt;" style="rounded=1;whiteSpace=wrap;html=1;strokeWidth=2;" vertex="1" parent="1">
          <mxGeometry x="520" y="320" width="160" height="40" as="geometry" />
        </mxCell>
        <mxCell id="fRUEs9i5r1WmXnQZ1WoU-3" value="&lt;font style=&quot;font-size: 18px;&quot;&gt;Motion Control&lt;/font&gt;" style="rounded=1;whiteSpace=wrap;html=1;strokeWidth=2;" vertex="1" parent="1">
          <mxGeometry x="520" y="480" width="160" height="40" as="geometry" />
        </mxCell>
        <mxCell id="fRUEs9i5r1WmXnQZ1WoU-4" value="&lt;font style=&quot;font-size: 18px;&quot;&gt;Perception&lt;/font&gt;" style="rounded=1;whiteSpace=wrap;html=1;strokeWidth=2;" vertex="1" parent="1">
          <mxGeometry x="160" y="480" width="160" height="40" as="geometry" />
        </mxCell>
        <mxCell id="fRUEs9i5r1WmXnQZ1WoU-6" value="" style="endArrow=classic;html=1;rounded=0;exitX=1;exitY=0.5;exitDx=0;exitDy=0;entryX=0;entryY=0.5;entryDx=0;entryDy=0;strokeWidth=2;" edge="1" parent="1" source="fRUEs9i5r1WmXnQZ1WoU-1" target="fRUEs9i5r1WmXnQZ1WoU-2">
          <mxGeometry width="50" height="50" relative="1" as="geometry">
            <mxPoint x="352" y="350" as="sourcePoint" />
            <mxPoint x="402" y="300" as="targetPoint" />
          </mxGeometry>
        </mxCell>
        <mxCell id="fRUEs9i5r1WmXnQZ1WoU-8" value="" style="endArrow=classic;html=1;rounded=0;exitX=0.5;exitY=0;exitDx=0;exitDy=0;entryX=0.5;entryY=1;entryDx=0;entryDy=0;strokeWidth=2;" edge="1" parent="1" source="fRUEs9i5r1WmXnQZ1WoU-4" target="fRUEs9i5r1WmXnQZ1WoU-1">
          <mxGeometry width="50" height="50" relative="1" as="geometry">
            <mxPoint x="192" y="440" as="sourcePoint" />
            <mxPoint x="392" y="440" as="targetPoint" />
          </mxGeometry>
        </mxCell>
        <mxCell id="fRUEs9i5r1WmXnQZ1WoU-9" value="" style="endArrow=classic;html=1;rounded=0;exitX=0.5;exitY=1;exitDx=0;exitDy=0;entryX=0.5;entryY=0;entryDx=0;entryDy=0;strokeWidth=2;" edge="1" parent="1" source="fRUEs9i5r1WmXnQZ1WoU-2" target="fRUEs9i5r1WmXnQZ1WoU-3">
          <mxGeometry width="50" height="50" relative="1" as="geometry">
            <mxPoint x="542" y="430" as="sourcePoint" />
            <mxPoint x="742" y="430" as="targetPoint" />
          </mxGeometry>
        </mxCell>
        <mxCell id="fRUEs9i5r1WmXnQZ1WoU-10" value="Robot Control Loop" style="text;html=1;align=center;verticalAlign=middle;whiteSpace=wrap;rounded=0;" vertex="1" parent="1">
          <mxGeometry x="380" y="400" width="80" height="40" as="geometry" />
        </mxCell>
        <mxCell id="fRUEs9i5r1WmXnQZ1WoU-13" value="&lt;font color=&quot;#4d4d4d&quot; style=&quot;font-size: 9px;&quot;&gt;Path&lt;/font&gt;" style="text;html=1;align=center;verticalAlign=middle;whiteSpace=wrap;rounded=0;strokeWidth=1;" vertex="1" parent="1">
          <mxGeometry x="592" y="400" width="60" height="30" as="geometry" />
        </mxCell>
        <mxCell id="fRUEs9i5r1WmXnQZ1WoU-14" value="&lt;font color=&quot;#4d4d4d&quot; style=&quot;font-size: 9px;&quot;&gt;Environment Model Local Map&lt;/font&gt;" style="text;html=1;align=center;verticalAlign=middle;whiteSpace=wrap;rounded=0;strokeWidth=1;" vertex="1" parent="1">
          <mxGeometry x="160" y="405" width="80" height="30" as="geometry" />
        </mxCell>
        <mxCell id="fRUEs9i5r1WmXnQZ1WoU-15" value="" style="curved=1;endArrow=classic;html=1;rounded=0;entryX=1;entryY=0.5;entryDx=0;entryDy=0;exitX=0;exitY=0.5;exitDx=0;exitDy=0;strokeWidth=2;dashed=1;" edge="1" parent="1" source="fRUEs9i5r1WmXnQZ1WoU-3" target="fRUEs9i5r1WmXnQZ1WoU-4">
          <mxGeometry width="50" height="50" relative="1" as="geometry">
            <mxPoint x="387" y="540" as="sourcePoint" />
            <mxPoint x="437" y="490" as="targetPoint" />
            <Array as="points">
              <mxPoint x="437" y="540" />
              <mxPoint x="382" y="500" />
            </Array>
          </mxGeometry>
        </mxCell>
        <mxCell id="fRUEs9i5r1WmXnQZ1WoU-22" value="&lt;font color=&quot;#4d4d4d&quot; style=&quot;font-size: 9px;&quot;&gt;Real World Environment&lt;/font&gt;" style="text;html=1;align=center;verticalAlign=middle;whiteSpace=wrap;rounded=0;strokeWidth=1;" vertex="1" parent="1">
          <mxGeometry x="390" y="530" width="60" height="30" as="geometry" />
        </mxCell>
        <mxCell id="fRUEs9i5r1WmXnQZ1WoU-23" value="&lt;font color=&quot;#4d4d4d&quot; style=&quot;font-size: 9px;&quot;&gt;Position&amp;nbsp;&lt;/font&gt;&lt;div&gt;&lt;font color=&quot;#4d4d4d&quot; style=&quot;font-size: 9px;&quot;&gt;Global Map&lt;/font&gt;&lt;/div&gt;" style="text;html=1;align=center;verticalAlign=middle;whiteSpace=wrap;rounded=0;strokeWidth=1;" vertex="1" parent="1">
          <mxGeometry x="370" y="310" width="100" height="30" as="geometry" />
        </mxCell>
      </root>
    </mxGraphModel>
  </diagram>
</mxfile>
